<?xml version="1.0" encoding="UTF-8" standalone="no"?>
<!-- Created with Inkscape (http://www.inkscape.org/) -->

<svg
   width="1500"
   height="390"
   viewBox="0 0 396.87485 103.18775"
   version="1.1"
   id="svg1"
   sodipodi:docname="readiin-logo-2.svg"
   inkscape:version="1.3.2 (091e20e, 2023-11-25, custom)"
   xmlns:inkscape="http://www.inkscape.org/namespaces/inkscape"
   xmlns:sodipodi="http://sodipodi.sourceforge.net/DTD/sodipodi-0.dtd"
   xmlns:xlink="http://www.w3.org/1999/xlink"
   xmlns="http://www.w3.org/2000/svg"
   xmlns:svg="http://www.w3.org/2000/svg">
  <sodipodi:namedview
     id="namedview1"
     pagecolor="#ffffff"
     bordercolor="#ffffff"
     borderopacity="1"
     inkscape:showpageshadow="0"
     inkscape:pageopacity="0"
     inkscape:pagecheckerboard="0"
     inkscape:deskcolor="#505050"
     inkscape:document-units="mm"
     showborder="false"
     showguides="true"
     inkscape:zoom="0.46244784"
     inkscape:cx="576.28121"
     inkscape:cy="165.42406"
     inkscape:window-width="1920"
     inkscape:window-height="991"
     inkscape:window-x="3831"
     inkscape:window-y="681"
     inkscape:window-maximized="1"
     inkscape:current-layer="layer1" />
  <defs
     id="defs1">
    <linearGradient
       id="linearGradient21"
       inkscape:collect="always">
      <stop
         style="stop-color:#31153e;stop-opacity:1;"
         offset="0"
         id="stop21" />
      <stop
         style="stop-color:#170920;stop-opacity:1;"
         offset="0.83047122"
         id="stop22" />
    </linearGradient>
    <linearGradient
       id="linearGradient19"
       inkscape:collect="always">
      <stop
         style="stop-color:#ea0e16;stop-opacity:1;"
         offset="0.2389513"
         id="stop19" />
      <stop
         style="stop-color:#ba0b11;stop-opacity:1;"
         offset="0.8589853"
         id="stop20" />
    </linearGradient>
    <linearGradient
       inkscape:collect="always"
       xlink:href="#linearGradient19"
       id="linearGradient20"
       x1="6.8409037"
       y1="55.87502"
       x2="392.48807"
       y2="55.87502"
       gradientUnits="userSpaceOnUse" />
    <linearGradient
       inkscape:collect="always"
       xlink:href="#linearGradient21"
       id="linearGradient22"
       x1="274.66086"
       y1="53.095079"
       x2="329.6318"
       y2="53.095079"
       gradientUnits="userSpaceOnUse" />
  </defs>
  <g
     inkscape:label="Camada 1"
     inkscape:groupmode="layer"
     id="layer1">
    <path
       id="path18"
       style="font-size:116.182px;font-family:'Bauhaus 93';-inkscape-font-specification:'Bauhaus 93, Normal';fill:url(#linearGradient20);stroke-width:2.01702;fill-opacity:1;opacity:1"
       d="M 6.8409037 16.561303 L 6.8409037 93.997074 L 29.873145 93.997074 L 29.873145 37.381271 L 33.95766 37.381271 C 39.554965 37.381271 42.353551 39.215288 42.353551 42.883791 C 42.353551 47.04395 39.933389 49.124252 35.092478 49.124252 L 33.27708 49.124252 L 33.27708 69.036263 L 44.452653 93.997074 L 68.619711 93.997074 L 55.345037 62.058378 C 62.190389 56.687992 65.612653 50.088717 65.612653 42.260055 C 65.612653 34.582672 62.852116 28.247675 57.330451 23.255484 C 52.37608 18.792769 45.398381 16.561303 36.397311 16.561303 L 6.8409037 16.561303 z M 242.26845 16.561303 L 242.26845 62.909491 C 242.26845 70.435596 239.54545 74.198752 234.09942 74.198752 C 231.83024 74.198752 229.88259 73.423395 228.25635 71.87279 C 226.63011 70.284366 225.8167 68.393276 225.8167 66.199737 C 225.8167 63.93056 226.59206 62.001937 228.14266 60.413513 C 229.73109 58.787269 231.62218 57.973863 233.81571 57.973863 C 235.55542 57.973863 237.29534 58.654614 239.03505 60.01612 L 239.03505 36.643847 C 236.50113 36.416929 234.61004 36.303298 233.36199 36.303298 C 225.49551 36.303298 218.688 39.215515 212.93942 45.039737 C 207.19084 50.863959 204.31667 57.766077 204.31667 65.746017 C 204.31667 73.990695 207.20986 80.94937 212.99626 86.622313 C 218.78266 92.295256 225.8925 95.131891 234.32628 95.131891 C 238.56207 95.131891 242.68463 94.205371 246.69351 92.352209 C 250.74021 90.499048 254.06838 88.002788 256.67794 84.863759 C 261.21629 79.417734 263.48529 72.364453 263.48529 63.703759 L 263.48529 16.561303 L 242.26845 16.561303 z M 101.52269 36.18961 C 93.126737 36.18961 86.035406 39.04527 80.249004 44.756033 C 74.500421 50.466797 71.626254 57.46352 71.626254 65.746017 C 71.626254 74.066335 74.481397 81.044033 80.19216 86.679157 C 85.902923 92.314281 92.956205 95.131891 101.35216 95.131891 C 108.23533 95.131891 114.49475 92.91945 120.12987 88.494554 L 108.04634 73.971891 C 106.07972 76.08979 104.03747 77.148449 101.91957 77.148449 C 99.310012 77.148449 97.192179 76.014208 95.565936 73.745031 C 93.977512 71.475854 93.183129 68.506564 93.183129 64.83806 C 93.183129 61.320835 94.015561 58.446667 95.679624 56.21531 C 97.343688 53.946132 99.499052 52.811375 102.14643 52.811375 C 106.11748 52.811375 108.48161 54.910702 109.238 59.10868 L 98.459306 59.10868 C 97.778553 60.924022 97.438177 62.777063 97.438177 64.668044 C 97.438177 66.029551 97.683947 67.523708 98.175602 69.149952 L 130.34116 69.149952 C 130.49244 67.33461 130.56802 66.01064 130.56802 65.178608 C 130.56802 57.00957 127.76943 50.145501 122.17213 44.586017 C 116.61264 38.988713 109.72955 36.18961 101.52269 36.18961 z M 367.3004 36.246454 C 360.22813 36.246454 354.25253 38.780763 349.3738 43.848593 C 344.49507 48.878602 342.05536 55.080944 342.05536 62.455771 L 342.05536 93.997074 L 363.27221 93.997074 L 363.27221 62.058378 C 363.27221 58.80589 364.59618 57.179594 367.24355 57.179594 C 369.92875 57.179594 371.27122 58.80589 371.27122 62.058378 L 371.27122 93.997074 L 392.48807 93.997074 L 392.48807 64.15748 C 392.48807 55.98844 390.57847 49.615911 386.75869 45.039737 C 381.87996 39.177696 375.3938 36.246454 367.3004 36.246454 z M 165.51326 36.303298 C 157.3064 36.303298 150.3287 39.158958 144.58012 44.869721 C 138.86936 50.580485 136.01421 57.539159 136.01421 65.746017 C 136.01421 74.179793 138.85033 81.195024 144.52327 86.792329 C 150.19622 92.389633 157.28755 95.188736 165.79696 95.188736 C 167.23411 95.188736 168.82287 95.037056 170.56257 94.734499 L 170.56257 72.78023 C 168.97415 73.76354 167.25324 74.255596 165.40009 74.255596 C 163.13091 74.255596 161.25884 73.498747 159.78388 71.985961 C 158.30891 70.473177 157.57109 68.544554 157.57109 66.199737 C 157.57109 63.968379 158.38449 62.039757 160.01074 60.413513 C 161.63698 58.787269 163.5656 57.973863 165.79696 57.973863 C 168.25524 57.973863 170.20288 58.862851 171.64003 60.640373 C 173.11499 62.417895 173.85282 64.800524 173.85282 67.788275 L 173.85282 93.997074 L 195.06966 93.997074 L 195.06966 66.256581 C 195.06966 56.990773 192.42224 49.691724 187.12749 44.359157 C 181.87057 38.98877 174.6656 36.303298 165.51326 36.303298 z " />
    <path
       id="path17"
       style="font-size:116.182px;font-family:'Bauhaus 93';-inkscape-font-specification:'Bauhaus 93, Normal';fill:url(#linearGradient22);stroke-width:2.01702;fill-opacity:1;opacity:1"
       d="M 285.32639 12.193084 C 282.4521 12.193084 279.95584 13.21421 277.83794 15.25647 C 275.75786 17.26091 274.71771 19.643539 274.71771 22.404372 C 274.71771 25.354302 275.70079 27.77498 277.66741 29.665961 C 279.67184 31.556942 282.22518 32.502488 285.32639 32.502488 C 288.4276 32.502488 290.96139 31.556942 292.92801 29.665961 C 294.93246 27.77498 295.93455 25.354302 295.93455 22.404372 C 295.93455 19.643539 294.87538 17.26091 292.75748 15.25647 C 290.6774 13.21421 288.20068 12.193084 285.32639 12.193084 z M 319.02364 12.193084 C 316.14935 12.193084 313.65309 13.21421 311.53519 15.25647 C 309.4551 17.26091 308.41496 19.643539 308.41496 22.404372 C 308.41496 25.354302 309.39855 27.77498 311.36517 29.665961 C 313.36961 31.556942 315.92243 32.502488 319.02364 32.502488 C 322.12485 32.502488 324.65864 31.556942 326.62526 29.665961 C 328.6297 27.77498 329.6318 25.354302 329.6318 22.404372 C 329.6318 19.643539 328.57314 17.26091 326.45524 15.25647 C 324.37517 13.21421 321.89793 12.193084 319.02364 12.193084 z M 274.66086 37.438116 L 274.66086 93.997074 L 295.87771 93.997074 L 295.87771 37.438116 L 274.66086 37.438116 z M 308.35811 37.438116 L 308.35811 93.997074 L 329.57496 93.997074 L 329.57496 37.438116 L 308.35811 37.438116 z " />
  </g>
</svg>
